# xmcd
#
# Track frame offsets:
#	150
#	11933
#	26346
#	36328
#	49330
#	61802
#	75383
#	86452
#	98646
#	112038
#	124148
#	135914
#	146646
#	163040
#	175385
#	186709
#	205240
#	215843
#	227617
#	238957
#
# Disc length: 3299 seconds
#
# Revision: 0
# Processed by: cddbd v1.5.2PL0 Copyright (c) Steve Scherf et al.
# Submitted via: EasyCDDAExtractor 16.0.1.1
#
DISCID=200ce114
DTITLE=Dave Dudley - 20 Great Truck Hits
DYEAR=1976
DGENRE=TruckCountry
TTITLE0=Six Days On The Road
TTITLE1=Counterfeid Cowboy
TTITLE2=Rollin' On Your Track
TTITLE3=Me And Ole C B
TTITLE4=Wave At *Em Billy Boy
TTITLE5=I Have Been Known Not To Go Home
TTITLE6=One More Plane
TTITLE7=Fireball Rolled A Seven
TTITLE8=Let Me Dream
TTITLE9=Denims And Diamonds
TTITLE10=Texas Ruby
TTITLE11=Rollin' Rig
TTITLE12=Seventeen Seventy-Six [1776]
TTITLE13=Big Stuff
TTITLE14=Truckin' Dad
TTITLE15=Rooster Hill
TTITLE16=Been Around The Horn
TTITLE17=Sentimental Journey
TTITLE18=My Sunny Overgrown Country Town
TTITLE19=Sugarland USA
EXTD=
EXTT0=
EXTT1=
EXTT2=
EXTT3=
EXTT4=
EXTT5=
EXTT6=
EXTT7=
EXTT8=
EXTT9=
EXTT10=
EXTT11=
EXTT12=
EXTT13=
EXTT14=
EXTT15=
EXTT16=
EXTT17=
EXTT18=
EXTT19=
PLAYORDER=
